<svg xmlns="http://www.w3.org/2000/svg" viewBox="0 0 170 170"><defs><style>.cls-1{fill:#ff685e;}.cls-2{fill:#fffaef;}</style></defs><g id="katman_2" data-name="katman 2"><g id="ARTBOARD_2" data-name="ARTBOARD 2"><circle class="cls-1" cx="85" cy="85" r="85"/><path class="cls-2" d="M112.43,114.59c-4.18-10.36-9.59-22.19-20-18a20.28,20.28,0,0,0-7.78,5.58A62.72,62.72,0,0,1,73.57,76c-.12-.62-.21-1.24-.31-1.85a20.13,20.13,0,0,0,9.65-1.35c10.36-4.18,9-9.14,4.84-19.5s-9.6-22.2-20-18a20.23,20.23,0,0,0-12.65,18,85.4,85.4,0,0,0,.52,25A81.41,81.41,0,0,0,65.8,106.18,85.81,85.81,0,0,0,84.11,127.8a20.22,20.22,0,0,0,23.48,6.29C118,129.92,116.6,125,112.43,114.59Z"/></g></g></svg>