<svg xmlns="http://www.w3.org/2000/svg" xmlns:xlink="http://www.w3.org/1999/xlink" viewBox="0 0 142.46 98.32"><defs><style>.cls-1{isolation:isolate;}.cls-2{fill:url(#Degradado_sin_nombre_6);}.cls-3{fill:#999;mix-blend-mode:multiply;}.cls-4{fill:url(#Degradado_sin_nombre_7);}.cls-5{fill:url(#Degradado_sin_nombre_7-2);}.cls-6{fill:url(#Degradado_sin_nombre_7-3);}.cls-7{fill:url(#Degradado_sin_nombre_4);}</style><linearGradient id="Degradado_sin_nombre_6" x1="149.82" y1="28.37" x2="46.73" y2="28.37" gradientUnits="userSpaceOnUse"><stop offset="0" stop-color="#3334a8"/><stop offset="1" stop-color="#c764db"/></linearGradient><linearGradient id="Degradado_sin_nombre_7" x1="85.02" y1="88.48" x2="85.02" y2="100.74" gradientUnits="userSpaceOnUse"><stop offset="0" stop-color="#c764db"/><stop offset="1" stop-color="#3334a8"/></linearGradient><linearGradient id="Degradado_sin_nombre_7-2" x1="126.48" y1="88.48" x2="126.48" y2="98.88" xlink:href="#Degradado_sin_nombre_7"/><linearGradient id="Degradado_sin_nombre_7-3" x1="73.68" y1="67.56" x2="141.52" y2="67.56" xlink:href="#Degradado_sin_nombre_7"/><linearGradient id="Degradado_sin_nombre_4" x1="25.73" y1="29.61" x2="160.75" y2="29.61" gradientUnits="userSpaceOnUse"><stop offset="0" stop-color="#ff1179"/><stop offset="1" stop-color="#ffcb3f"/></linearGradient></defs><g class="cls-1"><g id="katman_2" data-name="katman 2"><g id="OBJECTS"><path class="cls-2" d="M132.28,43.7a4.21,4.21,0,0,1-4.09-5.32l4.52-16.88H40A4.23,4.23,0,0,1,40,13h98.27a4.24,4.24,0,0,1,4.08,5.33l-5.95,22.2A4.21,4.21,0,0,1,132.28,43.7Z"/><polygon class="cls-3" points="46.98 13.04 40.45 13.04 45.6 21.5 52.09 21.5 46.98 13.04"/><path class="cls-4" d="M90.28,93.06A5.26,5.26,0,1,1,85,87.8,5.25,5.25,0,0,1,90.28,93.06Z"/><circle class="cls-5" cx="126.48" cy="93.06" r="5.26"/><path class="cls-6" d="M130.62,84.37H77.91a4.23,4.23,0,1,1,0-8.46h49.46l5.84-22a4.23,4.23,0,1,1,8.17,2.17l-6.67,25.14A4.23,4.23,0,0,1,130.62,84.37Z"/><polygon class="cls-3" points="130.8 62.98 139.55 62.98 141.46 55.73 132.72 55.73 130.8 62.98"/><path class="cls-7" d="M137.29,59.22H62.73a4.23,4.23,0,0,1-3.62-2L29.7,8.46H4.23A4.23,4.23,0,0,1,4.23,0H32.09a4.24,4.24,0,0,1,3.62,2L65.12,50.76h72.17a4.23,4.23,0,1,1,0,8.46Z"/></g></g></g></svg>