<?xml version="1.0" encoding="utf-8"?>
<!-- Generator: Adobe Illustrator 25.4.1, SVG Export Plug-In . SVG Version: 6.00 Build 0)  -->
<svg version="1.1" id="katman_1" xmlns="http://www.w3.org/2000/svg" xmlns:xlink="http://www.w3.org/1999/xlink" x="0px" y="0px"
	 viewBox="0 0 355.3 148.5" style="enable-background:new 0 0 355.3 148.5;" xml:space="preserve">
<style type="text/css">
	.st0{fill:url(#SVGID_1_);}
	.st1{fill:#999999;}
	.st2{fill:url(#SVGID_00000018199094069530919280000005582131759977187746_);}
	.st3{fill:url(#SVGID_00000039107580593351131400000002401211323705611954_);}
	.st4{fill:url(#SVGID_00000016064278342849299470000012575690718726458271_);}
	.st5{fill:url(#SVGID_00000145022668634358665780000001107380533734558857_);}
	.st6{fill:#3334A8;}
	.st7{fill:#FF1179;}
	.st8{fill:#333333;}
	.st9{opacity:0.55;fill:url(#SVGID_00000169538397241667682390000002890504172881077128_);enable-background:new    ;}
</style>
<linearGradient id="SVGID_1_" gradientUnits="userSpaceOnUse" x1="149.82" y1="121.6499" x2="46.73" y2="121.6499" gradientTransform="matrix(1 0 0 -1 0 150)">
	<stop  offset="0" style="stop-color:#3334A8"/>
	<stop  offset="1" style="stop-color:#C764DB"/>
</linearGradient>
<path class="st0" d="M132.3,43.7c-2.3,0-4.2-1.9-4.2-4.2c0-0.4,0-0.8,0.1-1.1l4.5-16.9H40c-2.3,0-4.2-1.9-4.2-4.3S37.7,13,40,13
	h98.3c2.3,0,4.2,1.9,4.2,4.3c0,0.4,0,0.7-0.1,1.1l-5.9,22.2C135.9,42.4,134.2,43.7,132.3,43.7z"/>
<polygon class="st1" points="47,13 40.5,13 45.6,21.5 52.1,21.5 "/>
<linearGradient id="SVGID_00000029006131911134075670000011379684675632865208_" gradientUnits="userSpaceOnUse" x1="85.02" y1="61.52" x2="85.02" y2="49.26" gradientTransform="matrix(1 0 0 -1 0 150)">
	<stop  offset="0" style="stop-color:#C764DB"/>
	<stop  offset="1" style="stop-color:#3334A8"/>
</linearGradient>
<path style="fill:url(#SVGID_00000029006131911134075670000011379684675632865208_);" d="M90.3,93.1c0,2.9-2.4,5.3-5.3,5.3
	c-2.9,0-5.3-2.4-5.3-5.3c0-2.9,2.3-5.2,5.2-5.3C87.9,87.8,90.3,90.1,90.3,93.1C90.3,93,90.3,93,90.3,93.1z"/>
<linearGradient id="SVGID_00000108308626631710822610000007843815890116936839_" gradientUnits="userSpaceOnUse" x1="126.48" y1="61.52" x2="126.48" y2="51.12" gradientTransform="matrix(1 0 0 -1 0 150)">
	<stop  offset="0" style="stop-color:#C764DB"/>
	<stop  offset="1" style="stop-color:#3334A8"/>
</linearGradient>
<circle style="fill:url(#SVGID_00000108308626631710822610000007843815890116936839_);" cx="126.5" cy="93.1" r="5.3"/>
<linearGradient id="SVGID_00000126294879228498759950000014842171740152692130_" gradientUnits="userSpaceOnUse" x1="73.6779" y1="82.5145" x2="141.5692" y2="82.5145" gradientTransform="matrix(1 0 0 -1 0 150)">
	<stop  offset="0" style="stop-color:#C764DB"/>
	<stop  offset="1" style="stop-color:#3334A8"/>
</linearGradient>
<path style="fill:url(#SVGID_00000126294879228498759950000014842171740152692130_);" d="M130.6,84.4H77.9c-2.3,0-4.2-1.9-4.2-4.2
	c0-2.3,1.9-4.2,4.2-4.2c0,0,0,0,0,0h49.5l5.8-22c0.5-2.3,2.8-3.7,5.1-3.2c2.3,0.5,3.7,2.8,3.2,5.1c0,0.1-0.1,0.2-0.1,0.3l-6.7,25.1
	C134.2,83.1,132.5,84.4,130.6,84.4z"/>
<polygon class="st1" points="130.8,63 139.6,63 141.5,55.7 132.7,55.7 "/>
<linearGradient id="SVGID_00000008149822073908971890000018332291253522157718_" gradientUnits="userSpaceOnUse" x1="25.73" y1="120.39" x2="160.75" y2="120.39" gradientTransform="matrix(1 0 0 -1 0 150)">
	<stop  offset="0" style="stop-color:#FF1179"/>
	<stop  offset="1" style="stop-color:#FFCB3F"/>
</linearGradient>
<path style="fill:url(#SVGID_00000008149822073908971890000018332291253522157718_);" d="M137.3,59.2H62.7c-1.5,0-2.8-0.7-3.6-2
	L29.7,8.5H4.2C1.9,8.5,0,6.6,0,4.2C0,1.9,1.9,0,4.2,0h27.9c1.5,0,2.8,0.8,3.6,2l29.4,48.8h72.2c2.3,0,4.2,1.9,4.2,4.2
	C141.5,57.3,139.6,59.2,137.3,59.2C137.3,59.2,137.3,59.2,137.3,59.2L137.3,59.2z"/>
<path class="st6" d="M150.6,36.1h-8.1v-3h19.8v3h-8.2v24.5h-3.5V36.1z"/>
<path class="st6" d="M163.4,47c0-2.3,0-4.3-0.2-6.1h3.1l0.1,3.9h0.2c0.7-2.5,2.8-4.2,5.3-4.3c0.3,0,0.7,0,1,0.1v3.4
	c-0.4-0.1-0.8-0.1-1.2-0.1c-2.5,0-4.2,1.9-4.7,4.6c-0.1,0.6-0.1,1.1-0.2,1.7v10.5h-3.5L163.4,47z"/>
<path class="st6" d="M177.9,51.3c0.1,4.9,3.1,6.9,6.6,6.9c1.8,0.1,3.6-0.3,5.3-1l0.6,2.6c-2,0.9-4.2,1.3-6.4,1.2c-6,0-9.4-4-9.4-10
	s3.4-10.7,9-10.7c6.3,0,7.9,5.7,7.9,9.3c0,0.6,0,1.1-0.1,1.7H177.9z M188.1,48.8c0-2.3-0.9-5.8-4.8-5.8c-3.6,0-5.1,3.3-5.4,5.8
	H188.1z"/>
<path class="st6" d="M195.8,46.1c0-2,0-3.7-0.2-5.3h3.1l0.2,3.3h0.1c1.3-2.3,3.7-3.8,6.3-3.7c2.7,0,6.8,1.6,6.8,8.4v11.8h-3.5V49.2
	c0-3.2-1.2-5.8-4.4-5.8c-2.2,0-4.1,1.5-4.7,3.7c-0.2,0.5-0.2,1.1-0.2,1.7v11.9h-3.5L195.8,46.1z"/>
<path class="st6" d="M234.4,31.6v23.9c0,1.8,0,3.8,0.2,5.1h-3.1l-0.2-3.4h-0.1c-1.3,2.5-3.8,4-6.5,3.9c-4.6,0-8.2-4-8.2-10
	c0-6.6,3.9-10.6,8.6-10.6c2.3-0.1,4.5,1,5.8,3h0.1V31.6H234.4z M230.9,48.8c0-0.5,0-1-0.2-1.5c-0.5-2.4-2.6-4.2-5-4.2
	c-3.6,0-5.8,3.3-5.8,7.6c0,4,1.9,7.4,5.7,7.4c2.5,0,4.6-1.8,5.1-4.3c0.1-0.5,0.2-1,0.2-1.5V48.8z"/>
<path class="st6" d="M241.5,40.8l4.2,11.7c0.4,1.3,0.9,2.9,1.2,4h0.1c0.4-1.2,0.8-2.7,1.2-4.1l3.8-11.6h3.7l-5.2,14.1
	c-2.5,6.8-4.2,10.2-6.6,12.4c-1.2,1.2-2.7,2-4.3,2.3l-0.9-3c1.1-0.4,2.2-1,3.1-1.8c1.3-1.1,2.3-2.5,2.9-4c0.1-0.3,0.2-0.5,0.3-0.8
	c0-0.3-0.1-0.6-0.2-0.9l-7.2-18.2L241.5,40.8z"/>
<path class="st7" d="M270.9,36.1h-8.1v-3h19.8v3h-8.2v24.5h-3.5V36.1z"/>
<path class="st7" d="M283.6,47c0-2.3,0-4.3-0.2-6.1h3.1l0.1,3.9h0.2c0.7-2.5,2.8-4.2,5.3-4.3c0.3,0,0.7,0,1,0.1v3.4
	c-0.4-0.1-0.8-0.1-1.2-0.1c-2.5,0-4.2,1.9-4.7,4.6c-0.1,0.6-0.1,1.1-0.2,1.7v10.5h-3.5V47z"/>
<path class="st7" d="M313.6,50.5c0,7.4-4.9,10.5-9.5,10.5c-5.2,0-9.2-3.9-9.2-10.2c0-6.6,4.2-10.5,9.5-10.5
	C309.8,40.3,313.6,44.5,313.6,50.5z M298.3,50.7c0,4.3,2.4,7.6,5.8,7.6s5.8-3.2,5.8-7.7c0-3.3-1.6-7.6-5.7-7.6
	C300.1,43,298.3,47,298.3,50.7z"/>
<path class="st7" d="M319,40.8l3.8,11c0.6,1.8,1.2,3.4,1.6,5.1h0.1c0.4-1.6,1-3.3,1.6-5.1l3.7-11h3.6l-7.5,19.8h-3.3l-7.3-19.8H319z
	"/>
<path class="st7" d="M336.4,51.3c0.1,4.9,3.8,6.9,8,6.9c2.2,0.1,4.4-0.3,6.5-1l0.7,2.6c-2.5,0.9-5.1,1.3-7.8,1.2
	c-7.2,0-11.5-4-11.5-10s4.2-10.7,11-10.7c7.7,0,9.7,5.7,9.7,9.3c0,0.6-0.1,1.1-0.1,1.7H336.4z M348.9,48.8c0-2.3-1.1-5.8-5.9-5.8
	c-4.4,0-6.2,3.3-6.5,5.8H348.9z"/>
<path class="st8" d="M151.8,79.4c0.8-0.1,1.5-0.2,2.3-0.2c1.2-0.1,2.4,0.3,3.4,1c0.8,0.8,1.2,1.9,1.2,3c0.1,1.2-0.4,2.4-1.2,3.2
	c-1,0.9-2.3,1.3-3.7,1.2c-0.6,0-1.3,0-1.9-0.1V79.4z M152.8,86.7c0.4,0,0.7,0.1,1.1,0.1c1.7,0.2,3.3-1,3.5-2.8c0-0.2,0-0.5,0-0.7
	c0-2-1.1-3.2-3.4-3.2c-0.4,0-0.8,0-1.2,0.1V86.7z"/>
<path class="st8" d="M161.1,79.9c0,0.4-0.3,0.7-0.7,0.7s-0.7-0.3-0.7-0.7c0,0,0,0,0,0c0-0.4,0.3-0.7,0.6-0.7c0,0,0,0,0,0
	C160.8,79.2,161.1,79.5,161.1,79.9C161.1,79.9,161.1,79.9,161.1,79.9z M159.9,87.5v-6h1.1v6H159.9z"/>
<path class="st8" d="M162.7,86.4c0.4,0.3,0.9,0.4,1.4,0.4c0.8,0,1.1-0.4,1.1-0.9s-0.3-0.8-1.1-1.1c-1.1-0.4-1.6-1-1.6-1.7
	c0-1,0.9-1.8,1.9-1.8c0.1,0,0.1,0,0.2,0c0.5,0,1,0.1,1.5,0.4l-0.3,0.8c-0.4-0.2-0.8-0.4-1.2-0.3c-0.6,0-1,0.4-1,0.8s0.4,0.7,1.1,1
	c1,0.4,1.6,0.9,1.6,1.8c0,1.1-0.8,1.8-2.2,1.8c-0.6,0-1.2-0.1-1.7-0.4L162.7,86.4z"/>
<path class="st8" d="M171.9,87.3c-0.5,0.2-1.1,0.4-1.7,0.3c-1.6,0.1-2.9-1.1-3-2.6c0-0.1,0-0.2,0-0.4c-0.1-1.7,1.2-3.1,2.8-3.2
	c0.1,0,0.3,0,0.4,0c0.5,0,1,0.1,1.5,0.3l-0.2,0.8c-0.4-0.2-0.8-0.3-1.3-0.3c-1.2,0.1-2.1,1.2-2,2.5c0.1,1.1,1,1.9,2,2
	c0.5,0,0.9-0.1,1.3-0.3L171.9,87.3z"/>
<path class="st8" d="M178.5,84.5c0.1,1.6-1,3-2.6,3.2c-0.1,0-0.2,0-0.4,0c-1.6,0-2.8-1.2-2.9-2.8c0-0.1,0-0.2,0-0.3
	c-0.1-1.6,1.1-3,2.7-3.2c0.1,0,0.2,0,0.3,0c1.6,0,2.8,1.2,2.9,2.8C178.5,84.3,178.5,84.4,178.5,84.5z M173.8,84.6
	c0,1.3,0.8,2.3,1.8,2.3s1.8-1,1.8-2.3c0-1-0.5-2.3-1.8-2.3S173.8,83.5,173.8,84.6z"/>
<path class="st8" d="M180.2,81.6l1.2,3.3c0.2,0.5,0.3,1,0.5,1.5l0,0c0.1-0.5,0.3-1,0.5-1.5l1.2-3.3h1.1l-2.3,6h-1l-2.3-6H180.2z"/>
<path class="st8" d="M186.2,84.8c-0.1,1,0.7,2,1.7,2.1c0.1,0,0.2,0,0.3,0c0.6,0,1.1-0.1,1.6-0.3l0.2,0.8c-0.6,0.3-1.3,0.4-2,0.4
	c-1.5,0.1-2.8-1.1-2.9-2.6c0-0.1,0-0.3,0-0.4c0-1.8,1.1-3.2,2.8-3.2c1.4,0,2.5,1.2,2.5,2.6c0,0.1,0,0.2,0,0.2c0,0.2,0,0.3,0,0.5
	L186.2,84.8z M189.4,84c0.1-0.8-0.5-1.6-1.3-1.7c-0.1,0-0.1,0-0.2,0c-0.9,0.1-1.6,0.8-1.7,1.8H189.4z"/>
<path class="st8" d="M191.8,83.5c0-0.7,0-1.3-0.1-1.9h1v1.2h0.1c0.2-0.7,0.9-1.3,1.6-1.3c0.1,0,0.2,0,0.3,0v1c-0.1,0-0.2,0-0.4,0
	c-0.8,0-1.4,0.7-1.5,1.4c0,0.2,0,0.3-0.1,0.5v3.2h-1.1L191.8,83.5z"/>
<path class="st8" d="M199.7,79.9v1.7h1.6v0.8h-1.6v3.2c0,0.7,0.2,1.2,0.8,1.2c0.2,0,0.4,0,0.6-0.1l0.1,0.8c-0.3,0.1-0.7,0.2-1,0.2
	c-0.4,0-0.9-0.1-1.2-0.5c-0.3-0.4-0.5-1-0.4-1.6v-3.2h-0.9v-0.8h0.9v-1.4L199.7,79.9z"/>
<path class="st8" d="M202.5,78.8h1.1v3.7l0,0c0.2-0.3,0.4-0.6,0.8-0.8c0.3-0.2,0.7-0.3,1.1-0.3c0.8,0,2.1,0.5,2.1,2.6v3.6h-1.1v-3.4
	c0-1-0.4-1.8-1.4-1.8c-0.7,0-1.2,0.4-1.4,1.1c-0.1,0.2-0.1,0.3-0.1,0.5v3.6h-1.1V78.8z"/>
<path class="st8" d="M209.9,84.8c-0.1,1,0.7,2,1.7,2.1c0.1,0,0.2,0,0.3,0c0.6,0,1.1-0.1,1.6-0.3l0.2,0.8c-0.6,0.3-1.3,0.4-2,0.4
	c-1.5,0.1-2.8-1.1-2.9-2.6c0-0.1,0-0.3,0-0.4c0-1.8,1.1-3.2,2.8-3.2c1.4,0,2.5,1.2,2.5,2.6c0,0.1,0,0.2,0,0.2c0,0.2,0,0.3,0,0.5
	L209.9,84.8z M213.1,84c0.1-0.8-0.5-1.6-1.3-1.7c-0.1,0-0.1,0-0.2,0c-0.9,0.1-1.6,0.8-1.6,1.8L213.1,84z"/>
<path class="st8" d="M218.1,79.3h1.1v7.4h3.6v0.9h-4.6L218.1,79.3z"/>
<path class="st8" d="M227.2,87.6l-0.1-0.8l0,0c-0.4,0.6-1.1,0.9-1.8,0.9c-0.9,0.1-1.7-0.6-1.8-1.6c0,0,0-0.1,0-0.1
	c0-1.4,1.3-2.2,3.6-2.2v-0.1c0.1-0.7-0.4-1.3-1.1-1.4c-0.1,0-0.2,0-0.3,0c-0.5,0-1.1,0.2-1.6,0.4l-0.2-0.7c0.6-0.4,1.3-0.5,2-0.5
	c1.8,0,2.3,1.2,2.3,2.4v2.2c0,0.5,0,1,0.1,1.4L227.2,87.6z M227.1,84.6c-1.2,0-2.5,0.2-2.5,1.3c0,0.6,0.4,1,1,1c0.7,0,1.2-0.4,1.5-1
	c0-0.1,0.1-0.2,0.1-0.3L227.1,84.6z"/>
<path class="st8" d="M231.1,79.9v1.7h1.6v0.8h-1.6v3.2c0,0.7,0.2,1.2,0.8,1.2c0.2,0,0.4,0,0.6-0.1l0.1,0.8c-0.3,0.1-0.7,0.2-1,0.2
	c-0.4,0-0.9-0.1-1.2-0.5c-0.3-0.4-0.5-1-0.4-1.6v-3.2h-0.9v-0.8h0.9v-1.4L231.1,79.9z"/>
<path class="st8" d="M234.4,84.8c-0.1,1.1,0.7,2,1.7,2.1c0.1,0,0.2,0,0.3,0c0.6,0,1.1-0.1,1.6-0.3l0.2,0.8c-0.6,0.3-1.3,0.4-2,0.4
	c-1.5,0.1-2.8-1.1-2.9-2.6c0-0.1,0-0.3,0-0.4c0-1.8,1.1-3.2,2.8-3.2c1.4,0,2.5,1.2,2.5,2.6c0,0.1,0,0.2,0,0.2c0,0.2,0,0.3,0,0.5
	L234.4,84.8z M237.6,84c0.1-0.8-0.5-1.6-1.3-1.7c-0.1,0-0.1,0-0.2,0c-0.9,0.1-1.6,0.8-1.7,1.8H237.6z"/>
<path class="st8" d="M239.8,86.4c0.4,0.3,0.9,0.4,1.4,0.4c0.8,0,1.1-0.4,1.1-0.9s-0.3-0.8-1.1-1.1c-1.1-0.4-1.6-1-1.6-1.7
	c0-1,0.9-1.8,1.9-1.8c0,0,0.1,0,0.1,0c0.5,0,1,0.1,1.5,0.4l-0.3,0.8c-0.4-0.2-0.8-0.4-1.2-0.3c-0.6,0-1,0.4-1,0.8s0.4,0.7,1.1,1
	c1,0.4,1.6,0.9,1.6,1.8c0,1.1-0.8,1.8-2.2,1.8c-0.6,0-1.2-0.1-1.7-0.4L239.8,86.4z"/>
<path class="st8" d="M246.2,79.9v1.7h1.6v0.8h-1.6v3.2c0,0.7,0.2,1.2,0.8,1.2c0.2,0,0.4,0,0.6-0.1v0.8c-0.3,0.1-0.7,0.2-1,0.2
	c-0.4,0-0.9-0.1-1.2-0.5c-0.3-0.4-0.5-1-0.4-1.6v-3.2h-0.9v-0.8h0.9v-1.4L246.2,79.9z"/>
<path class="st8" d="M248.2,89.1c0.3-1,0.6-1.9,0.7-2.9l1.2-0.1c-0.3,1-0.7,2-1.2,3L248.2,89.1z"/>
<path class="st8" d="M254,86.2c0.6,0.4,1.2,0.5,1.9,0.5c1.1,0,1.7-0.6,1.7-1.4s-0.4-1.2-1.6-1.7c-1.4-0.5-2.2-1.2-2.2-2.4
	s1.1-2.2,2.7-2.2c0.6,0,1.3,0.1,1.8,0.4l-0.3,0.9c-0.5-0.3-1-0.4-1.6-0.4c-1.1,0-1.6,0.7-1.6,1.2c0,0.8,0.5,1.2,1.7,1.6
	c1.4,0.5,2.1,1.2,2.1,2.4s-1,2.4-2.9,2.4c-0.7,0-1.5-0.2-2.1-0.5L254,86.2z"/>
<path class="st8" d="M260.1,78.8h1.1v3.7l0,0c0.2-0.3,0.5-0.6,0.8-0.8c0.3-0.2,0.7-0.3,1.1-0.3c0.8,0,2.1,0.5,2.1,2.6v3.6h-1.1v-3.4
	c0-1-0.4-1.8-1.4-1.8c-0.7,0-1.3,0.4-1.5,1.1c-0.1,0.2-0.1,0.3-0.1,0.5v3.6h-1.1L260.1,78.8z"/>
<path class="st8" d="M272.3,84.5c0.1,1.6-1,3-2.6,3.2c-0.1,0-0.2,0-0.4,0c-1.6,0-2.8-1.2-2.9-2.8c0-0.1,0-0.2,0-0.3
	c-0.1-1.6,1.1-3,2.7-3.2c0.1,0,0.2,0,0.3,0c1.6,0,2.8,1.2,2.9,2.8C272.4,84.3,272.4,84.4,272.3,84.5z M267.6,84.6
	c0,1.3,0.8,2.3,1.8,2.3s1.8-1,1.8-2.3c0-1-0.5-2.3-1.8-2.3S267.6,83.5,267.6,84.6L267.6,84.6z"/>
<path class="st8" d="M273.7,83.5c0-0.8,0-1.4,0-1.9h1v1l0,0c0.4-0.7,1.3-1.2,2.1-1.2c1.4,0,2.5,1.2,2.5,3c0,2.1-1.3,3.2-2.7,3.2
	c-0.7,0-1.4-0.3-1.8-0.9l0,0v3.2h-1.1L273.7,83.5z M274.8,85.1c0,0.1,0,0.3,0,0.4c0.2,0.7,0.9,1.3,1.6,1.3c1.1,0,1.8-0.9,1.8-2.3
	c0-1.2-0.6-2.2-1.8-2.2c-0.8,0-1.5,0.6-1.6,1.3c0,0.1-0.1,0.3-0.1,0.4V85.1z"/>
<path class="st8" d="M284.6,79.9v1.7h1.5v0.8h-1.5v3.2c0,0.7,0.2,1.2,0.8,1.2c0.2,0,0.4,0,0.6-0.1v0.8c-0.3,0.1-0.7,0.2-1,0.2
	c-0.4,0-0.9-0.1-1.2-0.5c-0.3-0.4-0.5-1-0.4-1.6v-3.2h-0.9v-0.8h0.9v-1.4L284.6,79.9z"/>
<path class="st8" d="M287.4,78.8h1.1v3.7l0,0c0.2-0.3,0.4-0.6,0.8-0.8c0.3-0.2,0.7-0.3,1.1-0.3c0.8,0,2.1,0.5,2.1,2.6v3.6h-1.1v-3.4
	c0-1-0.4-1.8-1.4-1.8c-0.7,0-1.2,0.4-1.5,1.1c-0.1,0.2-0.1,0.3-0.1,0.5v3.6h-1.1L287.4,78.8z"/>
<path class="st8" d="M294.9,84.8c-0.1,1,0.7,2,1.7,2.1c0.1,0,0.2,0,0.3,0c0.6,0,1.1-0.1,1.6-0.3l0.2,0.8c-0.6,0.3-1.3,0.4-2,0.4
	c-1.5,0.1-2.8-1.1-2.9-2.6c0-0.1,0-0.3,0-0.4c0-1.8,1.1-3.2,2.8-3.2c1.4,0,2.5,1.2,2.5,2.6c0,0.1,0,0.2,0,0.2c0,0.2,0,0.3,0,0.5
	L294.9,84.8z M298,84c0.1-0.8-0.5-1.6-1.3-1.7c-0.1,0-0.1,0-0.2,0c-0.9,0.1-1.6,0.8-1.7,1.8H298z"/>
<path class="st8" d="M309.4,87.2c-0.8,0.3-1.7,0.4-2.5,0.4c-2.1,0.2-4-1.4-4.3-3.5c0-0.2,0-0.5,0-0.7c-0.1-2.3,1.7-4.2,4-4.3
	c0.2,0,0.3,0,0.5,0c0.7,0,1.4,0.1,2.1,0.4l-0.3,0.9c-0.6-0.3-1.2-0.4-1.8-0.4c-1.7-0.1-3.2,1.1-3.3,2.9c0,0.2,0,0.3,0,0.5
	c-0.2,1.6,1,3.1,2.6,3.3c0.2,0,0.4,0,0.6,0c0.5,0,1,0,1.4-0.2v-2.5h-1.7v-0.9h2.7L309.4,87.2z"/>
<path class="st8" d="M311,83.5c0-0.7,0-1.3,0-1.9h1v1.2h0.1c0.2-0.7,0.9-1.3,1.6-1.3c0.1,0,0.2,0,0.3,0v1c-0.1,0-0.2,0-0.4,0
	c-0.8,0-1.4,0.7-1.5,1.4c0,0.2,0,0.3,0,0.5v3.2H311V83.5z"/>
<path class="st8" d="M315.5,84.8c-0.1,1,0.7,2,1.7,2.1c0.1,0,0.2,0,0.3,0c0.6,0,1.1-0.1,1.6-0.3l0.2,0.8c-0.6,0.3-1.3,0.4-2,0.4
	c-1.5,0.1-2.8-1.1-2.9-2.6c0-0.1,0-0.3,0-0.4c0-1.8,1.1-3.2,2.8-3.2c1.4,0,2.5,1.2,2.5,2.6c0,0.1,0,0.2,0,0.2c0,0.2,0,0.3,0,0.5
	L315.5,84.8z M318.7,84c0.1-0.8-0.5-1.6-1.3-1.7c-0.1,0-0.1,0-0.2,0c-0.9,0.1-1.6,0.8-1.7,1.8H318.7z"/>
<path class="st8" d="M324.4,87.6l-0.1-0.8l0,0c-0.4,0.6-1.1,0.9-1.8,0.9c-0.9,0.1-1.7-0.6-1.8-1.6c0-0.1,0-0.1,0-0.2
	c0-1.4,1.3-2.2,3.6-2.2v-0.1c0.1-0.7-0.4-1.3-1.1-1.4c-0.1,0-0.2,0-0.3,0c-0.6,0-1.1,0.2-1.6,0.4l-0.2-0.7c0.6-0.4,1.3-0.5,2-0.5
	c1.8,0,2.3,1.2,2.3,2.4v2.2c0,0.5,0,1,0.1,1.4L324.4,87.6z M324.2,84.6c-1.2,0-2.5,0.2-2.5,1.3c0,0.6,0.4,1,1,1c0.6,0,1.2-0.4,1.4-1
	c0-0.1,0.1-0.2,0.1-0.3L324.2,84.6z"/>
<path class="st8" d="M328.3,79.9v1.7h1.5v0.8h-1.5v3.2c0,0.7,0.2,1.2,0.8,1.2c0.2,0,0.4,0,0.6-0.1l0,0.8c-0.3,0.1-0.7,0.2-1,0.2
	c-0.4,0-0.9-0.1-1.2-0.5c-0.3-0.4-0.5-1-0.4-1.6v-3.2h-0.9v-0.8h0.9v-1.4L328.3,79.9z"/>
<path class="st8" d="M331.6,84.8c-0.1,1,0.7,2,1.7,2.1c0.1,0,0.2,0,0.3,0c0.6,0,1.1-0.1,1.6-0.3l0.2,0.8c-0.6,0.3-1.3,0.4-2,0.4
	c-1.5,0.1-2.8-1.1-2.9-2.6c0-0.1,0-0.3,0-0.4c0-1.8,1.1-3.2,2.8-3.2c1.4,0,2.5,1.2,2.5,2.6c0,0.1,0,0.2,0,0.2c0,0.2,0,0.3,0,0.5
	L331.6,84.8z M334.7,84c0.1-0.8-0.5-1.6-1.3-1.7c-0.1,0-0.1,0-0.2,0c-0.9,0.1-1.6,0.8-1.7,1.8H334.7z"/>
<path class="st8" d="M337,86.4c0.4,0.3,0.9,0.4,1.4,0.4c0.8,0,1.1-0.4,1.1-0.9s-0.3-0.8-1.1-1.1c-1.1-0.4-1.6-1-1.6-1.7
	c0-1,0.9-1.8,1.9-1.8c0.1,0,0.1,0,0.2,0c0.5,0,1,0.1,1.5,0.4l-0.3,0.8c-0.4-0.2-0.8-0.4-1.2-0.3c-0.6,0-1,0.4-1,0.8s0.4,0.7,1.1,1
	c1,0.4,1.6,0.9,1.6,1.8c0,1.1-0.8,1.8-2.2,1.8c-0.6,0-1.2-0.1-1.7-0.4L337,86.4z"/>
<path class="st8" d="M343.3,79.9v1.7h1.5v0.8h-1.5v3.2c0,0.7,0.2,1.2,0.8,1.2c0.2,0,0.4,0,0.6-0.1l0,0.8c-0.3,0.1-0.7,0.2-1,0.2
	c-0.4,0-0.9-0.1-1.2-0.5c-0.3-0.4-0.5-1-0.4-1.6v-3.2h-0.9v-0.8h0.9v-1.4L343.3,79.9z"/>
<path class="st8" d="M345.9,86.9c0-0.4,0.3-0.7,0.7-0.8c0,0,0,0,0,0c0.4,0,0.7,0.4,0.7,0.9c0,0.4-0.3,0.6-0.7,0.7
	C346.2,87.7,345.9,87.3,345.9,86.9C345.9,86.9,345.9,86.9,345.9,86.9z M346.2,85.1l-0.2-5.9h1.2l-0.2,5.9L346.2,85.1z"/>
<radialGradient id="SVGID_00000026876771517464194500000008927649677318488978_" cx="-239.93" cy="-2113.48" r="129.99" gradientTransform="matrix(-1 1.000000e-02 0 -0.1 -50.38 -72.38)" gradientUnits="userSpaceOnUse">
	<stop  offset="0" style="stop-color:#6E789D"/>
	<stop  offset="1" style="stop-color:#FFFFFF;stop-opacity:0"/>
</radialGradient>
<path style="opacity:0.55;fill:url(#SVGID_00000026876771517464194500000008927649677318488978_);enable-background:new    ;" d="
	M59.6,137.1c0.1,7.2,58.1,12.2,129.6,11.3s129.4-7.6,129.3-14.7s-58.1-12.2-129.6-11.3S59.5,130,59.6,137.1z"/>
</svg>
