<svg xmlns="http://www.w3.org/2000/svg" viewBox="0 0 110.21 22.24"><defs><style>.cls-1{fill:#ff685e;}.cls-2{fill:#3a3b7b;}</style></defs><g id="katman_2" data-name="katman 2"><g id="logo-49"><path class="cls-1" d="M3.53,13.83H8.16v2.72H0V2.05H3.53Z"/><path class="cls-1" d="M14.48,16.72A6.46,6.46,0,0,1,11.42,16a5.43,5.43,0,0,1-2.13-2.07,6.24,6.24,0,0,1-.76-3.14,6.07,6.07,0,0,1,.78-3.12,5.34,5.34,0,0,1,2.15-2.09,6.46,6.46,0,0,1,3.06-.72,6.46,6.46,0,0,1,3.06.72,5.34,5.34,0,0,1,2.15,2.09,6.07,6.07,0,0,1,.78,3.12,6.14,6.14,0,0,1-.8,3.14A5.47,5.47,0,0,1,17.54,16,6.46,6.46,0,0,1,14.48,16.72Zm0-3.06a2.27,2.27,0,0,0,1.71-.74,2.91,2.91,0,0,0,.73-2.13,3,3,0,0,0-.71-2.13,2.18,2.18,0,0,0-1.69-.74,2.23,2.23,0,0,0-1.72.74,3,3,0,0,0-.68,2.13,3.12,3.12,0,0,0,.66,2.13A2.23,2.23,0,0,0,14.48,13.66Z"/><path class="cls-1" d="M26.15,4.86a4.41,4.41,0,0,1,2.13.49,3.66,3.66,0,0,1,1.42,1.3V5h3.54V16.53a6.48,6.48,0,0,1-.64,2.88,4.82,4.82,0,0,1-1.92,2.06,6.2,6.2,0,0,1-3.21.77A6.65,6.65,0,0,1,23.32,21a4.54,4.54,0,0,1-1.82-3.27H25a1.64,1.64,0,0,0,.79,1,2.8,2.8,0,0,0,1.53.39A2.31,2.31,0,0,0,29,18.54a2.66,2.66,0,0,0,.66-2V14.9a3.93,3.93,0,0,1-1.42,1.32,4.41,4.41,0,0,1-2.13.5A4.78,4.78,0,0,1,23.57,16a5.21,5.21,0,0,1-1.84-2.09,7.14,7.14,0,0,1-.66-3.14,7,7,0,0,1,.66-3.12,5,5,0,0,1,1.84-2.07A4.78,4.78,0,0,1,26.15,4.86Zm3.55,5.93A2.86,2.86,0,0,0,29,8.7a2.34,2.34,0,0,0-1.78-.76,2.43,2.43,0,0,0-1.8.76,2.87,2.87,0,0,0-.72,2.07,3,3,0,0,0,.72,2.11,2.43,2.43,0,0,0,1.8.76A2.34,2.34,0,0,0,29,12.88,2.86,2.86,0,0,0,29.7,10.79Z"/><path class="cls-1" d="M40.42,16.72A6.39,6.39,0,0,1,37.37,16a5.43,5.43,0,0,1-2.13-2.07,6.24,6.24,0,0,1-.77-3.14,6,6,0,0,1,.79-3.12,5.27,5.27,0,0,1,2.15-2.09,6.84,6.84,0,0,1,6.11,0,5.27,5.27,0,0,1,2.15,2.09,6,6,0,0,1,.79,3.12,6,6,0,0,1-.81,3.14A5.34,5.34,0,0,1,43.48,16,6.46,6.46,0,0,1,40.42,16.72Zm0-3.06a2.29,2.29,0,0,0,1.72-.74,3,3,0,0,0,.72-2.13,3,3,0,0,0-.7-2.13,2.18,2.18,0,0,0-1.69-.74,2.21,2.21,0,0,0-1.72.74,3,3,0,0,0-.68,2.13,3.12,3.12,0,0,0,.66,2.13A2.21,2.21,0,0,0,40.42,13.66Z"/><path class="cls-2" d="M49.49,3.82A2.24,2.24,0,0,1,48,3.29a1.87,1.87,0,0,1-.58-1.37A1.8,1.8,0,0,1,48,.56,2.17,2.17,0,0,1,49.49,0,2.07,2.07,0,0,1,51,.56a1.75,1.75,0,0,1,.6,1.36A1.81,1.81,0,0,1,51,3.29,2.14,2.14,0,0,1,49.49,3.82ZM51.25,5V16.55H47.71V5Z"/><path class="cls-2" d="M56.72,6.65a3.91,3.91,0,0,1,1.43-1.3,4.35,4.35,0,0,1,2.13-.49,4.78,4.78,0,0,1,2.58.72,4.92,4.92,0,0,1,1.82,2.07,6.83,6.83,0,0,1,.68,3.12,7,7,0,0,1-.68,3.14A5.16,5.16,0,0,1,62.86,16a4.78,4.78,0,0,1-2.58.72,4.47,4.47,0,0,1-2.13-.5,3.87,3.87,0,0,1-1.43-1.28v7.11H53.19V5h3.53Zm5.05,4.12A2.8,2.8,0,0,0,61,8.7a2.36,2.36,0,0,0-1.8-.76,2.39,2.39,0,0,0-1.79.76,2.89,2.89,0,0,0-.73,2.09,2.89,2.89,0,0,0,.73,2.09,2.5,2.5,0,0,0,3.59,0A2.94,2.94,0,0,0,61.77,10.77Z"/><path class="cls-2" d="M71.29,16.72a6.55,6.55,0,0,1-2.69-.52,4.54,4.54,0,0,1-1.86-1.4,3.78,3.78,0,0,1-.76-2h3.49a1.32,1.32,0,0,0,.56,1,2,2,0,0,0,1.22.38,1.79,1.79,0,0,0,1-.25.81.81,0,0,0,.37-.68.75.75,0,0,0-.52-.73,10.56,10.56,0,0,0-1.67-.54,17.74,17.74,0,0,1-2.07-.59,3.77,3.77,0,0,1-1.42-1,2.79,2.79,0,0,1-.6-1.88,3.24,3.24,0,0,1,.53-1.8,3.79,3.79,0,0,1,1.62-1.3A6.33,6.33,0,0,1,71,4.86a5,5,0,0,1,3.41,1.07A4.21,4.21,0,0,1,75.9,8.78H72.63a1.4,1.4,0,0,0-.54-.95,1.79,1.79,0,0,0-1.15-.35,1.57,1.57,0,0,0-1,.25.73.73,0,0,0-.33.64.79.79,0,0,0,.52.74,8.79,8.79,0,0,0,1.65.5,16.45,16.45,0,0,1,2.09.66,3.44,3.44,0,0,1,1.41,1A2.93,2.93,0,0,1,76,13.21,3.05,3.05,0,0,1,75.38,15a3.66,3.66,0,0,1-1.63,1.24A6.1,6.1,0,0,1,71.29,16.72Z"/><path class="cls-2" d="M88.89,5V16.55H85.35V15a3.87,3.87,0,0,1-1.46,1.24,4.42,4.42,0,0,1-2,.46,4.62,4.62,0,0,1-2.34-.58A4.1,4.1,0,0,1,78,14.38a5.78,5.78,0,0,1-.55-2.62V5h3.51v6.26a2.53,2.53,0,0,0,.6,1.8,2.37,2.37,0,0,0,3.24,0,2.53,2.53,0,0,0,.6-1.8V5Z"/><path class="cls-2" d="M105.52,4.9a4.52,4.52,0,0,1,3.41,1.3,5,5,0,0,1,1.28,3.62v6.73H106.7V10.29a2.31,2.31,0,0,0-.6-1.71A2.07,2.07,0,0,0,104.49,8a2.16,2.16,0,0,0-1.64.62,2.39,2.39,0,0,0-.57,1.71v6.26H98.76V10.29a2.31,2.31,0,0,0-.6-1.71A2.06,2.06,0,0,0,96.55,8a2.13,2.13,0,0,0-1.63.62,2.35,2.35,0,0,0-.58,1.71v6.26H90.81V5h3.53V6.47a3.83,3.83,0,0,1,1.4-1.14,4.35,4.35,0,0,1,2-.43,4.6,4.6,0,0,1,2.31.56,3.91,3.91,0,0,1,1.61,1.59,4.61,4.61,0,0,1,1.64-1.55A4.41,4.41,0,0,1,105.52,4.9Z"/></g></g></svg>